<svg width="28" height="28" viewBox="0 0 28 28" fill="none" xmlns="http://www.w3.org/2000/svg">
<path d="M17.0549 13.9998L26.3715 4.70483C26.7795 4.29684 27.0087 3.74349 27.0087 3.1665C27.0087 2.58951 26.7795 2.03616 26.3715 1.62817C25.9635 1.22017 25.4102 0.990967 24.8332 0.990967C24.2562 0.990967 23.7029 1.22017 23.2949 1.62817L13.9999 10.9448L4.70487 1.62817C4.29688 1.22017 3.74352 0.990967 3.16653 0.990967C2.58955 0.990967 2.03619 1.22017 1.6282 1.62817C1.22021 2.03616 0.991002 2.58951 0.991002 3.1665C0.991002 3.74349 1.22021 4.29684 1.6282 4.70483L10.9449 13.9998L1.6282 23.2948C1.42512 23.4963 1.26394 23.7359 1.15394 23.9999C1.04394 24.2639 0.987305 24.5471 0.987305 24.8332C0.987305 25.1192 1.04394 25.4024 1.15394 25.6664C1.26394 25.9304 1.42512 26.1701 1.6282 26.3715C1.82962 26.5746 2.06926 26.7358 2.33328 26.8458C2.59731 26.9558 2.88051 27.0124 3.16653 27.0124C3.45256 27.0124 3.73576 26.9558 3.99978 26.8458C4.26381 26.7358 4.50345 26.5746 4.70487 26.3715L13.9999 17.0548L23.2949 26.3715C23.4963 26.5746 23.7359 26.7358 23.9999 26.8458C24.264 26.9558 24.5472 27.0124 24.8332 27.0124C25.1192 27.0124 25.4024 26.9558 25.6664 26.8458C25.9305 26.7358 26.1701 26.5746 26.3715 26.3715C26.5746 26.1701 26.7358 25.9304 26.8458 25.6664C26.9558 25.4024 27.0124 25.1192 27.0124 24.8332C27.0124 24.5471 26.9558 24.2639 26.8458 23.9999C26.7358 23.7359 26.5746 23.4963 26.3715 23.2948L17.0549 13.9998Z" fill="black"/>
</svg>
